<svg xmlns="http://www.w3.org/2000/svg" viewBox="0 0 100 100">
  <defs>
    <linearGradient id="grad1" x1="0%" y1="0%" x2="100%" y2="100%">
      <stop offset="0%" style="stop-color:#3b82f6;stop-opacity:1" />
      <stop offset="100%" style="stop-color:#6366f1;stop-opacity:1" />
    </linearGradient>
  </defs>
  
  <!-- Background circle -->
  <circle cx="50" cy="50" r="48" fill="url(#grad1)"/>
  
  <!-- Dashboard grid icon -->
  <rect x="20" y="25" width="18" height="18" rx="2" fill="white" opacity="0.9"/>
  <rect x="42" y="25" width="18" height="18" rx="2" fill="white" opacity="0.9"/>
  <rect x="64" y="25" width="18" height="18" rx="2" fill="white" opacity="0.9"/>
  
  <rect x="20" y="47" width="18" height="18" rx="2" fill="white" opacity="0.9"/>
  <rect x="42" y="47" width="18" height="18" rx="2" fill="white" opacity="0.9"/>
  <rect x="64" y="47" width="18" height="18" rx="2" fill="white" opacity="0.9"/>
  
  <rect x="20" y="69" width="18" height="18" rx="2" fill="white" opacity="0.9"/>
  <rect x="42" y="69" width="18" height="18" rx="2" fill="white" opacity="0.9"/>
  <rect x="64" y="69" width="18" height="18" rx="2" fill="white" opacity="0.9"/>
  
  <!-- Small accent dots -->
  <circle cx="29" cy="34" r="2" fill="#3b82f6"/>
  <circle cx="51" cy="56" r="2" fill="#3b82f6"/>
  <circle cx="73" cy="78" r="2" fill="#3b82f6"/>
</svg>

